<?xml version="1.0" encoding="UTF-8"?>
<svg id="Layer_2" data-name="Layer 2" xmlns="http://www.w3.org/2000/svg" viewBox="0 0 482 350.83">
  <defs>
    <style>
      .cls-1, .cls-2 {
        fill: #203441;
      }

      .cls-3 {
        fill: #fd9200;
      }

      .cls-4 {
        fill: #fec005;
      }

      .cls-5 {
        fill: #d5640f;
      }

      .cls-6 {
        fill: #eae9ea;
      }

      .cls-7 {
        fill: #f67209;
      }

      .cls-2 {
        stroke: #263238;
        stroke-miterlimit: 10;
      }
    </style>
  </defs>
  <g id="Object">
    <path class="cls-7" d="M453.85,186.74c.02,3.4-.01,6.82,0,10.22l-.49,130.96c-1.09,6.7-3.37,8.05-9.36,10.26-.43.16-.39.91-.69.95-.65.08-1.84-.51-2.83-.53-4.46-.07-8.95,0-13.41.02.27-1.47-.74-.94-1.68-.97-33.11-1.31-67.74.13-101.04,0l1-4.11-.03-143.89h128.04c.48-.45-1.64-3.33.49-2.92Z"/>
    <path class="cls-7" d="M221.14,211.57c.27,1.47-.74.94-1.68.97-3.81.15-7.66-.11-11.47,0,.25,2.85-.53,5.62-1.46,8.27h53.55c.13,24.99-.1,50,0,74.98-53.87.12-107.76-.17-161.63,0,.43-1.45-1.84-1.55-1.46,0-.97,0-1.95,0-2.92,0-.77-.82-3.15-.81-3.89,0-.32,0-.65,0-.97,0l-19.96-.48-.03-72.83,1.01-1.66h36.03c2.75,8.44,9.42,18.05,16.55,23.37.23.7.74.97,1.46.97.11.07.37-.07.49,0-.04,1.1.65,1.3,1.43,1.73,9.1,5.1,20.03,4.27,29.97,4.11,9.04-.14,17.24.46,25.55-3.41.31-.15.65-.33.97-.49l3.68-1.46,1.19-1.46c.11-.07.37.07.49,0l.97-.49c9.4-6.34,18.63-19.96,18.01-31.65,4.72-.1,9.4-.39,14.12-.48Z"/>
    <path class="cls-7" d="M292.22,37.77c-8.12,10.15-15.77,21.9-20.45,34.08l-203.99-.97c6.03-13.3,12.57-23.12,22.88-33.59l201.55.49Z"/>
    <path class="cls-3" d="M271.78,71.85c-4.18,10.88-6.07,21.52-6.82,33.1l-2.65-1.01H60.21s-1.18.52-1.18.52c.94-14.1,3.08-21.06,8.76-33.59l203.99.97Z"/>
    <path class="cls-3" d="M143.74,12.94l176.24.97c-11.73,6.77-19.31,13.31-27.75,23.86l-201.55-.49c13.88-14.1,32.78-24.32,53.07-24.34Z"/>
    <path class="cls-7" d="M264.96,104.95c-.04.64.03,1.3,0,1.95-1.47-.27-.94.74-.97,1.68-.19,4.76-.06,9.84,0,14.63,0,.82-.31,2.17.5,2.67l-1.19.51-58.92-.03c-4.38-3.52-8.76-7.6-14.61-8.27-.24-.09-.27-.25-.25-.48,0-.07.43-.25.49-.48-.97-.03-1.95,0-2.93,0-.16,0-.32,0-.49,0-.51-.81-1.85-.49-2.67-.5-11.01-.12-22.21.01-33.09.03-6.58.01-13.16-.06-19.73-.02l1.46.48c-6.44,1.63-12.44.96-17.97,5.15-.83.63-3.89,4.1-4.18,4.1h-51.85c.29-6.67-.37-13.63-.04-20.26.04-.87.51-1.53.52-1.65l1.18-.53h202.11s2.65,1.02,2.65,1.02Z"/>
    <path class="cls-5" d="M395.92,177.49l57.45.48.48,4.38c.03,1.46,0,2.92,0,4.38-2.13-.41,0,2.47-.49,2.92h-128.04s.03,143.89.03,143.89l-1,4.11c-.81,0-1.62,0-2.43,0-2.91-.02-5.85.01-8.76,0v-148.24c0-.18-.48-.8-.5-1.44-.12-3.32.12-6.68.02-10,27.39-1.34,55.74-.51,83.25-.49Z"/>
    <path class="cls-5" d="M221.14,211.57c9.98-.19,19.99-.21,29.92-.51,3-.09,6.03.11,9.03.02,0,3.24-.02,6.5,0,9.74h-53.55c.92-2.66,1.7-5.43,1.46-8.28,3.81-.11,7.66.15,11.47,0,.94-.04,1.95.5,1.68-.97Z"/>
    <path class="cls-5" d="M106.25,220.82h-37.49c.02-3.24-.01-6.5,0-9.74h35.3c1.14,0,.58,4.09.76,5.08.2,1.12,1.03,3.42,1.43,4.65Z"/>
    <path class="cls-4" d="M469.43,165.32c-49.42-.06-98.85.06-148.27.02-1.39,0-2.59-.53-3.85-.53-36.04-.02-72.03.9-108.1.51-1.21-.23-2.05-1.96-2.21-3.15-.59-4.38-.38-15.86.03-20.46.09-1.03.42-2.06.57-3.08.83-.25,1.72-.5,2.59-.57,15.82-1.37,35.52.15,51.58.5,9.26.2,14.03.76,14.86-10.01.66-8.52-.65-17.61.01-26.28,2.44-32.03,26.15-68.2,56.04-80.77,18.09-7.6,35.58-9.92,55.2-8.08,44.43,4.16,78.59,39.04,82.03,83.49l-.48,68.4ZM367.1,38.89c-26,2.15-48.96,21.56-57.37,45.84-4.65,13.44-5.58,33.07-4.38,47.26.22,2.56.7,4.38,3.06,5.7,44.99.71,90.22.41,135.24.15,1.38-.69,2.22-1.34,2.43-2.92.74-5.6-.06-14.48-.04-20.49,0-1.15.52-2.22.53-3.37.2-45.39-34.58-75.88-79.47-72.17Z"/>
    <path class="cls-4" d="M92.13,19.75c-24.89,21.24-43.69,50.64-44.79,84.22-.81.51-.49,1.85-.5,2.67-.07,6.91-.94,19.97.5,26.05.29,1.21.11,1.5.97,2.68.48.66,3.09,2.68,3.65,2.68h52.34c-.88,9.01-.81,18.29.48,27.26-26.77-.1-53.56.14-80.33,0,2.57-39.97-8.61-80.28,18.31-114.36,14.33-18.14,30.01-21.71,49.36-31.21Z"/>
    <path class="cls-1" d="M6.08,177.98c-4.77-.96-5.38-7.13-5.62-10.96-1.43-22.2,1.07-45.82-.02-68.17C4.44,41.02,47.19,2.5,104.93.74c78.02-2.37,156.44,1.84,234.5,0,22.09,1.55,43.96-1.45,65.72,3.76,42.27,10.11,74.31,48.17,76.44,91.44,1.22,24.74-.8,50.5-.11,75.34-2.01,8.27-8.77,7.1-15.55,6.69-.12,19.72.16,39.45.02,59.17-.2,28.95-.14,58.14-.53,87.14-.08,5.71.2,8.72-3,14.01-4.87,8.06-12.97,11.65-22.16,12.52H37.87c-8.57-.63-15.7-4.91-19.9-12.35-.85-1.51-3.33-6.95-3.33-8.37v-152.14c-2.53-.34-6.21.47-8.57,0ZM90.02,19.75c2.62-1.28,6.35-3.85,8.86-5.55.39-.26,1.58-.65,1.18-1.26-8.81,1.03-16.77,1.67-25.19,4.63C40.05,29.84,15.79,60.05,12.66,96.9v68.14c.09.5,8.25.27,9.32.28,26.91.14,53.85-.1,80.76,0-1.3-8.97-1.37-18.25-.49-27.26h-52.62c-.57,0-3.19-2.01-3.67-2.68-.87-1.18-.69-1.47-.98-2.68.23-9.55-.32-19.18,0-28.72,1.11-33.58,20-62.98,45.03-84.22ZM88.55,37.28c-10.36,10.47-16.94,20.3-23.01,33.59-5.71,12.53-7.86,19.49-8.81,33.59,0,.12-.48.78-.53,1.65-.34,6.64.32,13.59.04,20.26h52.13c.29,0,3.36-3.46,4.2-4.1,5.56-4.2,11.6-3.53,18.07-5.15,18.1.18,36.24-.25,54.33,0,.16,0,.33,0,.49,0,.42.79,1.66.46,2.45.49-.02.23,0,.39.25.48,5.88.68,10.28,4.75,14.69,8.27l59.24.03,1.2-.51c.18-5.42-.23-10.91-.02-16.33.04-1,.47-1.89.51-2.65.03-.65-.04-1.3,0-1.95.75-11.58,2.65-22.22,6.85-33.1,4.7-12.18,12.39-23.93,20.56-34.08,8.49-10.55,16.11-17.09,27.9-23.86.29-.17,2.55-.28,1.71-.98h-178.9c-20.39.02-39.39,10.24-53.35,24.34ZM469.37,165.32l.48-68.4c-3.46-44.45-37.81-79.33-82.48-83.49-19.72-1.84-37.31.48-55.5,8.08-30.04,12.56-53.89,48.74-56.34,80.77-.66,8.67.65,17.75-.01,26.28-.84,10.77-5.63,10.21-14.94,10.01-16.15-.35-35.95-1.87-51.86-.5-.88.08-1.77.32-2.61.57-.15,1.02-.48,2.05-.57,3.08-.41,4.6-.62,16.08-.03,20.46.16,1.18,1.01,2.92,2.22,3.15,36.27.39,72.45-.54,108.69-.51,1.27,0,2.47.53,3.87.53,49.69.03,99.39-.08,149.07-.02ZM125.26,129.29c-3.96.85-9.98,4.3-10.74,8.55l.09,77.75c4.25,16.09,15.71,23.83,32.19,24.22,7.07.16,23.19-.18,29.36-2.68,8.79-3.56,17.79-14.26,18.62-23.83,2.04-23.42-1.54-49.78-.05-73.5-1.43-5.43-3.24-10.16-9.57-10.93-18.38.84-38.02-1.3-56.26-.08-1.24.08-2.45.25-3.65.51ZM26.39,177.49c-.01.32.02.65,0,.97-.05.81.03,1.63,0,2.43-.02.49,0,.97,0,1.46,0,.32,0,.65,0,.97s0,.65,0,.97c-.01,1.3,0,2.6,0,3.89,0,.49,0,.97,0,1.46-.02,7.94,0,15.91,0,23.86,0,.32,0,.65,0,.97,0,2.75,0,5.52,0,8.28,0,.81,0,1.62,0,2.43,0,3.08,0,6.17,0,9.25,0,.65,0,1.3,0,1.95,0,11.03-.02,22.08,0,33.1,0,.32,0,.65,0,.97,0,.81,0,1.62,0,2.43,0,.32,0,.65,0,.97,0,1.46,0,2.92,0,4.38,0,.49,0,.97,0,1.46,0,1.78,0,3.57,0,5.36,0,1.62,0,3.25,0,4.87,0,.81,0,1.62,0,2.43,0,1.78-.01,3.57,0,5.36.05,9.31-.8,19.67.49,28.72,1.13,7.89,4,11.56,12.46,12.19,86.55-.31,173.21.55,259.69-.5l.49-161.15-93.49.49-.49,22.88h59.96c1.14,0,4.37,3.03,4.18,4.6.27,24-.67,48.12.49,72.05-.93,8.02,1.17,18.58-.05,26.28-.32,1.98-2.3,3.48-4.02,4.28-68.15.88-136.5.11-204.72.39-4.61-.97-4.97-2.86-5.62-6.83-.06-.39-.49-.45-.49-.49-.36-3.39.06-7.66,0-11.2.77-.32.77-2.11,0-2.43-.02-2.1.01-4.23,0-6.33,0-.28,0-.69,0-.97,0-.49,0-.97,0-1.46,0-.16,0-.32,0-.49,0-1.3,0-2.6,0-3.89,0-.53,0-1.42,0-1.95-.02-6,0-12.02,0-18.01,0-.16,0-.33,0-.49,0-8.75-.05-17.54,0-26.29,0-.16,0-.33,0-.49.01-1.62-.01-3.25,0-4.87,0-.17,0-.33,0-.49.04-4.48-.24-9.2,0-13.63.01-.21,0-.46,0-.49.04-.47-.07-1.02,0-1.46,0-.05.3-.33.49-.97.71-2.47,1.04-4.33,4.19-4.84,9.08-1.5,22.05,1.07,31.55-.02.16,0,.33,0,.49,0,.33,0,.65,0,.98,0,3.42-.02,6.86.02,10.28,0,.03-.32-.02-.65,0-.97s-.02-.65,0-.97c.82-2.26.82-5.98,0-8.28,0-1.3,0-2.6,0-3.89.84-1.24.81-4.22,0-5.36,0-.32.01-.65,0-.97,0-.08.08-.05,0-.49-.09-.47.3-1.33-.27-1.49-14.03-.06-28.06.15-42.09.05-1.72-.01-3.59-.49-5.61-.51-.65,0-1.31,0-1.96,0-7.23-.06-17.07-.74-23.98,0-.92.07-2.39-.37-2.94.49ZM311.75,177.98c-.33.02-.65-.03-.98,0,.08,2.35-.11,4.73-.02,7.08.03.64.51,1.26.51,1.44v152.14c3.26.01,6.53-.02,9.79,0,1.47,0,2.94,0,4.41,0,.16,0,.33,0,.49,0,.33,0,.65,0,.98,0,32.29.15,64.62.09,96.92,0,.16,0,.33,0,.49,0,.82,0,1.63,0,2.45,0,4.48-.01,9-.09,13.48-.02,1,.02,2.18.61,2.84.53.31-.04.27-.79.7-.95,6.02-2.21,8.32-3.57,9.41-10.26.04-.26.8-1,.53-1.65-.17-43.1.1-86.22-.04-129.31-.01-3.4.02-6.82,0-10.22,0-1.46.03-2.93,0-4.38-.03-1.62.02-3.25,0-4.87-19.41,0-38.84.02-58.25,0-27.66-.02-56.17-.86-83.7.49ZM66.53,220.82c-.13,25.14.1,50.32,0,75.46,6.86-.46,13.68-.45,20.56-.49.33,0,.65,0,.98,0,1.3,0,2.61,0,3.92,0,.98,0,1.96,0,2.94,0,.49,0,.98,0,1.47,0,54.16-.16,108.35.12,162.51,0-.1-24.98.13-49.99,0-74.98-.02-3.24.01-6.5,0-9.74-3.01.09-6.06-.11-9.08-.02-9.99.29-20.05.31-30.08.51-4.75.09-9.45.38-14.2.48.63,11.69-8.66,25.31-18.11,31.65-.13.09-.53.2-.98.49-.11.07-.37-.07-.49,0-1.55.99-3.25,2.11-4.89,2.92-.32.16-.66.34-.98.49-4.03.63-7.89,2.08-12,2.43-13.68,1.17-33.46,2.33-45.27-4.86-.12-.07-.37.07-.49,0-.42-.27-1.11-.71-1.47-.97-7.17-5.32-13.87-14.93-16.64-23.37-.41-1.24-1.24-3.54-1.44-4.65-.18-.99.39-5.08-.76-5.08h-35.49c-.01,3.24.02,6.5,0,9.74Z"/>
    <path class="cls-4" d="M55.62,177c.2.76,1.79.73,1.95,0,2.01.02,3.86.49,5.58.51,13.95.11,27.91-.1,41.86-.05.57.15.18,1.02.27,1.49v.49c.01.32,0,.65,0,.97.04,1.78,0,3.58,0,5.36,0,1.3,0,2.6,0,3.89-.02,2.74.14,5.55,0,8.28-.02.32.02.65,0,.97-3.13.79-7.76-1.27-10.22.97-.32,0-.65,0-.97,0l-.24-.48-.24.48c-9.45,1.09-22.35-1.47-31.38.02-3.13.52-3.46,2.37-4.16,4.84l-.49.97c-.07.44.04.99,0,1.46v.49c-.24,4.43.04,9.15,0,13.63v.49c-.01,1.62.01,3.25,0,4.87v.49c-.05,8.75,0,17.53,0,26.29v.49c0,6-.02,12.02,0,18.01v1.95c0,1.3,0,2.6,0,3.89v.49c0,.49,0,.97,0,1.46v.97c.01,2.1-.02,4.23,0,6.33,0,.81-.01,1.62,0,2.43.05,3.53-.36,7.81,0,11.2l.49.49c.65,3.96,1,5.86,5.59,6.83,67.86-.27,135.84.49,203.62-.39,1.71-.8,3.68-2.3,4-4.28,1.22-7.7-.87-18.26.05-26.28-1.15-23.93-.22-48.05-.49-72.05.18-1.58-3.02-4.6-4.16-4.6h-59.64l.48-22.88,92.99-.49-.49,161.15c-86.01,1.06-172.2.2-258.29.5-8.42-.63-11.27-4.3-12.4-12.19l-.49-28.72c-.01-1.78,0-3.57,0-5.36.77-.32.77-2.11,0-2.43,0-1.62,0-3.25,0-4.87.81-1.14.83-4.12,0-5.36,0-.49,0-.97,0-1.46.82-.91.82-3.47,0-4.38,0-.32,0-.65,0-.97.77-.32.77-2.11,0-2.43,0-.32,0-.65,0-.97v-33.1c0-.65,0-1.3,0-1.95.82-2.65.81-6.64,0-9.25,0-.81,0-1.62,0-2.43.82-2.29.82-6.02,0-8.28,0-.32,0-.65,0-.97v-23.86c0-.49,0-.97,0-1.46.82-.77.81-3.15,0-3.89,0-.32,0-.65,0-.97l.48-.73-.48-.25c0-.49-.02-.98,0-1.46.77-.32.77-2.11,0-2.43.02-.32-.01-.65,0-.97,1.08.48,2.35-.43,2.92-.49,6.87-.74,16.67-.06,23.86,0Z"/>
    <path class="cls-4" d="M148.61,239.81c-.32-.92-1.17-.98-1.94-1.23-5.15-1.64-8.33-1.47-12.9-5.11-10.68-8.51-8.4-15.69-8.51-28-.14-15.98.45-32.07.97-48.16.31-9.36-.37-18.72.95-28.01,1.2-.26,2.4-.43,3.63-.51,18.13-1.22,37.67.91,55.95.08,6.29.76,8.1,5.5,9.52,10.93-1.49,23.73,2.08,50.08.05,73.5-.83,9.57-9.78,20.27-18.52,23.83-6.14,2.5-22.18,2.85-29.21,2.68ZM150.44,157.17c-13.39,1.78-16.11,20.62-8.41,29.57.71.83,2.93,2.27,3.09,2.75.2.58.53,7.69.59,9.15.15,3.7-.68,10.11.35,13.28,2.17,6.62,13.71,6.95,16.56.76l.11-22.77c7.81-6.73,9.31-23.54.72-29.95-2.87-2.14-9.53-3.26-13.01-2.8Z"/>
    <path class="cls-7" d="M331.17,125.89c-1.83-19.71,5.39-39.85,21.46-51.81,20.67-15.38,57.21-11.92,74.04,7.66.67.78.95,1.52.89-.16,2.44,4.84,6.82,15.39,6.82,20.69v23.61c-34.4-.07-68.81.09-103.21,0Z"/>
    <path class="cls-5" d="M427.56,81.58c.06,1.68-.22.93-.89.16-16.83-19.58-53.37-23.04-74.04-7.66-16.07,11.95-23.29,32.1-21.46,51.81-4.7-.01-9.42,0-14.12,0-1.24-21.08,1.23-41.25,16.06-57.22,5.29-5.7,15.79-13,23.38-14.84,1.14.82,3.71.17,5.04-.07,2.86-.51,5.75-1.29,8.59-1.88.16-.02.33.02.49,0l.49-.49c24.56-2.43,45.4,8.24,56.47,30.18Z"/>
    <path class="cls-6" d="M92.13,19.75c-19.35,9.5-35.03,13.07-49.36,31.21-26.92,34.07-15.74,74.38-18.31,114.36-1.07,0-9.18.22-9.26-.28v-68.14c3.09-36.84,27.22-67.06,61.86-79.31,8.38-2.96,16.3-3.61,25.06-4.63.4.61-.78,1-1.17,1.26-2.49,1.7-6.21,4.27-8.82,5.55Z"/>
    <path class="cls-6" d="M148.61,239.81c-16.39-.38-27.79-8.12-32.01-24.22l-.09-77.75c.76-4.25,6.74-7.7,10.68-8.55-1.32,9.3-.65,18.65-.95,28.01-.53,16.08-1.12,32.18-.97,48.16.11,12.32-2.17,19.5,8.51,28,4.57,3.64,7.75,3.47,12.9,5.11.77.25,1.62.3,1.94,1.23Z"/>
    <path class="cls-3" d="M28.84,269.5c-.02-11.03,0-22.08,0-33.1v33.1Z"/>
    <path class="cls-3" d="M29.33,326.46c-1.29-9.06-.43-19.42-.49-28.72l.49,28.72Z"/>
    <path class="cls-3" d="M28.84,213.52c0-7.94-.02-15.91,0-23.86v23.86Z"/>
    <path class="cls-3" d="M28.84,234.45c0-3.08,0-6.17,0-9.25.81,2.61.82,6.6,0,9.25Z"/>
    <path class="cls-3" d="M28.84,222.77c0-2.75,0-5.52,0-8.28.82,2.26.82,5.98,0,8.28Z"/>
    <path class="cls-3" d="M28.84,285.08c0-1.78,0-3.57,0-5.36.83,1.24.81,4.22,0,5.36Z"/>
    <path class="cls-3" d="M28.84,278.27c0-1.46,0-2.92,0-4.38.82.91.82,3.47,0,4.38Z"/>
    <path class="cls-3" d="M28.84,188.2c0-1.3-.01-2.6,0-3.89.81.75.82,3.13,0,3.89Z"/>
    <path class="cls-5" d="M31.76,177c-.57.06-1.84.96-2.92.49.55-.86,2-.42,2.92-.49Z"/>
    <path class="cls-3" d="M28.84,292.38c0-.81,0-1.62,0-2.43.77.32.77,2.11,0,2.43Z"/>
    <path class="cls-3" d="M28.84,180.9c.03-.81-.05-1.63,0-2.43.77.32.77,2.11,0,2.43Z"/>
    <path class="cls-5" d="M57.57,289.46c-.01-.81,0-1.62,0-2.43.77.32.77,2.11,0,2.43Z"/>
    <path class="cls-3" d="M28.84,272.91c0-.81,0-1.62,0-2.43.77.32.77,2.11,0,2.43Z"/>
    <path class="cls-5" d="M57.57,177c-.16.73-1.75.76-1.95,0,.65,0,1.3,0,1.95,0Z"/>
    <path class="cls-5" d="M57.57,273.88v-1.95c0,.53,0,1.41,0,1.95Z"/>
    <path class="cls-5" d="M57.57,205.73l.49-.97c-.18.65-.48.92-.49.97Z"/>
    <path class="cls-3" d="M28.84,183.33c0-.32,0-.65,0-.97l.48.25-.48.73Z"/>
    <path class="cls-5" d="M57.57,280.7v-.97c0,.28,0,.7,0,.97Z"/>
    <path class="cls-5" d="M57.57,253.92v-.49c0,.16,0,.33,0,.49Z"/>
    <path class="cls-5" d="M57.57,278.27v-.49c0,.16,0,.33,0,.49Z"/>
    <path class="cls-5" d="M57.57,227.15v-.49c0,.16,0,.32,0,.49Z"/>
    <path class="cls-5" d="M57.57,221.79v-.49c0,.16,0,.32,0,.49Z"/>
    <path class="cls-5" d="M57.57,207.67v-.49s.01.28,0,.49Z"/>
    <path class="cls-5" d="M94.08,199.88c-.16,0-.32,0-.49,0l.24-.48.24.48Z"/>
    <path class="cls-5" d="M105.28,179.44v-.49c.08.44,0,.4,0,.49Z"/>
    <path class="cls-5" d="M58.05,301.15l-.49-.49s.42.1.49.49Z"/>
    <path class="cls-2" d="M367.1,38.89c44.89-3.71,79.68,26.78,79.47,72.17,0,1.15-.52,2.22-.53,3.37-.01,6.02.79,14.89.04,20.49-.21,1.58-1.05,2.23-2.43,2.92-45.03.26-90.25.56-135.24-.15-2.37-1.32-2.85-3.14-3.06-5.7-1.2-14.19-.27-33.82,4.38-47.26,8.4-24.28,31.37-43.7,57.37-45.84ZM371.09,51.4c-.37.04-.45.48-.49.49-.16.02-.33-.02-.49,0-4.54.57-9.13.86-13.63,1.95-7.59,1.84-18.09,9.13-23.38,14.84-14.82,15.97-17.29,36.14-16.06,57.22,4.7,0,9.42-.01,14.12,0,34.4.09,68.81-.07,103.21,0v-23.61c0-5.3-4.37-15.85-6.82-20.69-11.07-21.94-31.91-32.62-56.47-30.18Z"/>
    <path class="cls-1" d="M150.44,157.17c3.48-.46,10.15.66,13.01,2.8,8.59,6.41,7.09,23.21-.72,29.95l-.11,22.77c-2.85,6.19-14.4,5.86-16.56-.76-1.04-3.17-.2-9.58-.35-13.28-.06-1.46-.39-8.57-.59-9.15-.16-.48-2.38-1.92-3.09-2.75-7.7-8.95-4.99-27.79,8.41-29.57Z"/>
    <path class="cls-7" d="M370.6,51.89s.11-.45.49-.49l-.49.49Z"/>
  </g>
</svg>