<?xml version="1.0" encoding="UTF-8"?>
<svg id="Layer_2" data-name="Layer 2" xmlns="http://www.w3.org/2000/svg" viewBox="0 0 322.51 343.53">
  <defs>
    <style>
      .cls-1 {
        fill: #ffb300;
      }

      .cls-2 {
        fill: #263238;
      }

      .cls-3 {
        fill: #fafafa;
      }

      .cls-4 {
        fill: #ff9700;
      }

      .cls-5 {
        fill: #ffe082;
      }
    </style>
  </defs>
  <g id="Object">
    <g>
      <path class="cls-4" d="M185.76,8.39h-49.02C65.86,8.39,8.39,65.86,8.39,136.74v70.04c0,70.89,57.47,128.35,128.35,128.35h49.02V8.39Z"/>
      <path class="cls-3" d="M136.74,8.39h0C65.86,8.39,8.39,65.86,8.39,136.74v29.41c0-70.89,57.47-128.35,128.35-128.35h49.02V8.39h-49.02Z"/>
      <rect class="cls-1" x="57.41" y="8.39" width="256.71" height="326.75" rx="128.35" ry="128.35"/>
      <path class="cls-5" d="M314.12,136.74c0-21.43-5.28-41.62-14.57-59.38l-212.01,212.01c15.98,18.98,37.35,33.26,61.77,40.48l164.82-164.82v-28.3Z"/>
      <path class="cls-5" d="M229.47,16.04L57.41,188.1v18.69c0,14.45,2.42,28.33,6.83,41.3L271.27,41.05c-12.09-10.82-26.24-19.38-41.8-25.01Z"/>
      <path class="cls-3" d="M185.76,8.39h0c-70.89,0-128.35,57.47-128.35,128.35v24.51c0-70.89,57.47-128.35,128.35-128.35h0c70.89,0,128.35,57.47,128.35,128.35v-24.51c0-70.89-57.47-128.35-128.35-128.35Z"/>
      <path class="cls-2" d="M185.76,0h-49.02C61.34,0,0,61.34,0,136.74v70.04c0,75.4,61.34,136.74,136.75,136.74h49.02c75.4,0,136.75-61.34,136.75-136.74v-70.04C322.51,61.34,261.16,0,185.76,0ZM16.78,206.79v-70.04c0-59.59,43.68-109.15,100.7-118.4-40.88,23.67-68.46,67.86-68.46,118.4v70.04c0,50.54,27.58,94.73,68.46,118.4-57.02-9.25-100.7-58.81-100.7-118.4ZM305.73,206.79c0,66.15-53.82,119.96-119.97,119.96s-119.96-53.82-119.96-119.96v-70.04c0-66.15,53.82-119.97,119.96-119.97s119.97,53.82,119.97,119.97v70.04Z"/>
    </g>
  </g>
</svg>